<svg xmlns="http://www.w3.org/2000/svg" viewBox="0 0 500 500"><g id="freepik--background-simple--inject-2"><path d="M49.74,251.81C26.29,333.47,178.13,372,259.27,360.1c102.65-15,160.51-71,158.94-157.25-1.55-85.46-97.86-134.42-170.42-98.39-35.76,17.76-61.95,50-97.62,68.44C107.83,194.85,64.39,200.78,49.74,251.81Z" style="fill:#ccfbf1"></path><path d="M49.74,251.81C26.29,333.47,178.13,372,259.27,360.1c102.65-15,160.51-71,158.94-157.25-1.55-85.46-97.86-134.42-170.42-98.39-35.76,17.76-61.95,50-97.62,68.44C107.83,194.85,64.39,200.78,49.74,251.81Z" style="fill:#fff;opacity:0.9"></path></g><g id="freepik--character-2--inject-2"><path d="M235.16,95.42c-6.33,1.13-7.13.55-7.21-4s-2.38-12.14.82-14.52a1.73,1.73,0,0,1,2.87.84,2.08,2.08,0,0,1,2.61-1.21c.13-.94.28-3.35,2-4s3.3.91,3.3.91-.13-3.71,2.37-3.35A3.76,3.76,0,0,1,245,73s1.44-2.1,3.39-1.27S249.93,75,249.93,75s2.07-1,3.61.13.42,2.94.42,2.94,1.4-3.6,4.07-1.61c2.4,1.8.22,4.62.22,4.62s2.64-.43,3.28.9c2.16,4.53-6.07,9.59-6.34,17.24C242.55,104,235.16,95.42,235.16,95.42Z" style="fill:#263238"></path><path d="M189.54,217l-4.22-.78-5.58,5.33a3,3,0,0,0-.93,2.25l.08,4.36a3,3,0,0,0,2.75,2.95l1.94.17a3,3,0,0,0,3.18-2.21l1-3.56S193.27,219,189.54,217Z" style="fill:#ffb573"></path><path d="M232.16,137.26c-2.83,7.33-5.65,14.69-8.37,22.07s-5.42,14.79-7.95,22.08l-.45,1.35-.31.88c-.12.33-.24.67-.35.93-.47,1.19-.94,2.17-1.41,3.16-.94,2-1.89,3.79-2.85,5.6-1.93,3.6-3.92,7.07-5.93,10.53-4,6.93-8,13.7-12.14,20.57l-12.73-7.92c4.2-6.53,8.25-13.27,12.13-20,1.91-3.38,3.79-6.77,5.54-10.13.87-1.68,1.71-3.36,2.45-5,.35-.79.7-1.6.93-2.26.08-.19.11-.32.16-.45l.16-.52.46-1.46c2.41-7.68,4.94-15.1,7.38-22.63l7.32-22.51Z" style="fill:#ccfbf1"></path><path d="M232.16,137.26c-2.83,7.33-5.65,14.69-8.37,22.07s-5.42,14.79-7.95,22.08l-.45,1.35-.31.88c-.12.33-.24.67-.35.93-.47,1.19-.94,2.17-1.41,3.16-.94,2-1.89,3.79-2.85,5.6-1.93,3.6-3.92,7.07-5.93,10.53-4,6.93-8,13.7-12.14,20.57l-12.73-7.92c4.2-6.53,8.25-13.27,12.13-20,1.91-3.38,3.79-6.77,5.54-10.13.87-1.68,1.71-3.36,2.45-5,.35-.79.7-1.6.93-2.26.08-.19.11-.32.16-.45l.16-.52.46-1.46c2.41-7.68,4.94-15.1,7.38-22.63l7.32-22.51Z" style="fill:#fff;opacity:0.6000000000000001"></path><polygon points="194.02 404.91 185.05 405.35 189.29 381.99 197.82 383.95 194.02 404.91" style="fill:#ffb573"></polygon><polygon points="258.37 405.25 249.4 405.25 249.43 384.48 258.39 384.48 258.37 405.25" style="fill:#ffb573"></polygon><path d="M248.55,404.21h10.93a.74.74,0,0,1,.74.61l1.44,8a1.38,1.38,0,0,1-1.37,1.6c-3.52-.06-6.08-.27-10.51-.27-2.72,0-11,.28-14.72.28s-4.1-3.72-2.55-4.06c7-1.51,12.27-3.59,14.56-5.58A2.24,2.24,0,0,1,248.55,404.21Z" style="fill:#263238"></path><polygon points="189.29 382 187.33 392.8 195.86 394.76 197.82 383.96 189.29 382" style="opacity:0.2"></polygon><rect x="249.42" y="384.48" width="8.97" height="10.7" style="opacity:0.2"></rect><path d="M265.61,137c-7,31.49-5.14,62.57-5.89,69.3l-47.87-3.16c-5-38,.58-62.24,3.75-72.18a9,9,0,0,1,7.44-6.23,137.77,137.77,0,0,1,21.44-.67,80,80,0,0,1,14.36,2.18A9,9,0,0,1,265.61,137Z" style="fill:#ccfbf1"></path><path d="M251.18,102.72c-1.58,5.93-3.45,16.43-.44,21.74.47.83-.43,1.54-.47,2.5-.11,2.94-4.09,3.82-11.21,3.86s-10.17-2.93-8.23-5.73a2,2,0,0,1,1.26-.82c6.67-1.49,6.8-6.72,5.89-11.71Z" style="fill:#ffb573"></path><path d="M238.55,129.19A19.11,19.11,0,0,1,242,138c7.11-3.34,10.5-11.45,10.5-11.45l-2.14-2.29S242.46,125.75,238.55,129.19Z" style="opacity:0.4"></path><path d="M237.85,129.22a27.88,27.88,0,0,0-6.52,7.64C226.36,133.78,228,125,228,125l4.05-.8S233.86,125.87,237.85,129.22Z" style="opacity:0.4"></path><path d="M238.17,129l-1.53.15-2.59,1.71a4.69,4.69,0,0,0,.52,3,18.35,18.35,0,0,0,4.57.31,4.83,4.83,0,0,0,2.31-2.38l-1.9-2.43Z" style="fill:#263238"></path><path d="M238.17,129a25.69,25.69,0,0,1,4.35,8.06c7.11-3.34,11.25-11.32,11.25-11.32l-3.43-3S242.08,125.58,238.17,129Z" style="fill:#ccfbf1"></path><path d="M238.17,129a26.31,26.31,0,0,0-7.08,6.56c-5-3.07-3.09-11.34-3.09-11.34l4.05-.8S234.19,125.67,238.17,129Z" style="fill:#ccfbf1"></path><path d="M245.8,106.73,238,112.55a21,21,0,0,1,.39,3.65c2.81-.21,6.85-3,7.34-5.92A10,10,0,0,0,245.8,106.73Z" style="opacity:0.2"></path><path d="M252.61,92.92c-1.13,8.83-1.34,14-6.12,18.31-7.19,6.39-17.86,1.61-19.39-7.38-1.38-8.09.7-21.17,9.61-24.12A12.14,12.14,0,0,1,252.61,92.92Z" style="fill:#ffb573"></path><path d="M250.45,100.9c-2-1.93-.75-11.17.26-13.82-5,.48-21.16.46-20.55-4s6.49-8.25,16.1-5.12c8,2.61,10,6.6,10,9.86C256.38,94.52,250.45,100.9,250.45,100.9Z" style="fill:#263238"></path><path d="M255.71,101a7.84,7.84,0,0,1-4.52,3.82c-2.55.79-3.81-1.56-3.09-4.08.64-2.26,2.75-5.41,5.3-5.09S256.88,98.75,255.71,101Z" style="fill:#ffb573"></path><path d="M184.41,390.06l14.83,3.27s14.42-56.51,18.7-84.13c1.31-8.4,4.35-20.39,7.12-33,3.49-15.9,7.88-33.1,11.48-46.57,3.8-14.19,6.62-24.39,6.62-24.39l-31.31-2.07s-14.57,73.91-17.51,101.12C191.27,332.57,184.41,390.06,184.41,390.06Z" style="fill:#263238"></path><path d="M225.06,276.18c3.49-15.9,7.88-33.1,11.48-46.57l-3.29-7C225.48,231.89,223.49,260.6,225.06,276.18Z" style="opacity:0.2"></path><path d="M226.77,204.13s6.48,75.53,9,101.68c2.8,28.64,10.31,87.31,10.31,87.31h15.06s.68-62.48-2-90.14c-.38-54.38.57-96.67.57-96.67Z" style="fill:#263238"></path><polygon points="244.16 393.47 263.5 393.47 263.5 387.69 243.41 386.58 244.16 393.47" style="fill:#ccfbf1"></polygon><polygon points="182.47 390 200.14 393.9 201.4 388.19 182.9 383.53 182.47 390" style="fill:#ccfbf1"></polygon><path d="M239.7,94.5c0,.72-.47,1.28-.94,1.25s-.82-.64-.77-1.36.47-1.28.94-1.25S239.75,93.78,239.7,94.5Z" style="fill:#263238"></path><path d="M231.54,94c0,.72-.47,1.28-.94,1.25s-.82-.64-.77-1.36.47-1.28.94-1.25S231.59,93.24,231.54,94Z" style="fill:#263238"></path><path d="M233.41,94.5a26.16,26.16,0,0,1-3.85,5.94c1.19,1.28,3.4.88,3.4.88Z" style="fill:#ed893e"></path><path d="M235.88,103.45a6,6,0,0,0,4.23-2.1.21.21,0,0,0,0-.29.22.22,0,0,0-.3,0A5.75,5.75,0,0,1,235,103a.21.21,0,0,0-.23.19.22.22,0,0,0,.2.23A7.52,7.52,0,0,0,235.88,103.45Z" style="fill:#263238"></path><path d="M241.69,92a.48.48,0,0,0,.2-.07.43.43,0,0,0,.13-.59,4.25,4.25,0,0,0-3.34-2,.43.43,0,0,0,0,.85h0a3.38,3.38,0,0,1,2.63,1.6A.41.41,0,0,0,241.69,92Z" style="fill:#263238"></path><path d="M227.51,90.93a.43.43,0,0,0,.34-.21A3.37,3.37,0,0,1,230.37,89a.44.44,0,0,0,.4-.45.43.43,0,0,0-.45-.4,4.22,4.22,0,0,0-3.21,2.19.42.42,0,0,0,.16.57A.36.36,0,0,0,227.51,90.93Z" style="fill:#263238"></path><path d="M245.52,405.77a10.77,10.77,0,0,0,2.36-.32.21.21,0,0,0,.16-.17.19.19,0,0,0-.08-.21c-.32-.21-3.14-2-4.16-1.48a.71.71,0,0,0-.38.6,1.24,1.24,0,0,0,.39,1.13A2.63,2.63,0,0,0,245.52,405.77Zm1.75-.62c-1.53.31-2.7.25-3.17-.16a.82.82,0,0,1-.26-.77c0-.16.08-.22.14-.25C244.51,403.71,246.13,404.47,247.27,405.15Z" style="fill:#ccfbf1"></path><path d="M247.83,405.46a.15.15,0,0,0,.11,0,.21.21,0,0,0,.11-.19c0-.11-.11-2.7-1.12-3.55a1.13,1.13,0,0,0-.9-.27h0a.71.71,0,0,0-.69.55c-.23,1,1.48,3,2.39,3.47A.17.17,0,0,0,247.83,405.46Zm-1.66-3.64a.72.72,0,0,1,.48.19c.64.54.87,2.05.94,2.81-.89-.7-2-2.19-1.84-2.78,0-.05,0-.18.32-.21h.1Z" style="fill:#ccfbf1"></path><path d="M183.71,401.4l10.52,3a.75.75,0,0,1,.54.79l-.78,8.07a1.39,1.39,0,0,1-1.76,1.16c-3.37-1-5.77-1.91-10-3.12-2.62-.74-11.15-3.8-14.26-5.92s-1.28-5.39.19-4.79c6.61,2.68,11.26,2.25,14,1A2.27,2.27,0,0,1,183.71,401.4Z" style="fill:#263238"></path><path d="M180.36,402.08a11.39,11.39,0,0,0,2.36.33.22.22,0,0,0,.21-.12.2.2,0,0,0,0-.23c-.25-.28-2.48-2.76-3.59-2.55a.74.74,0,0,0-.54.48,1.25,1.25,0,0,0,.07,1.18A2.68,2.68,0,0,0,180.36,402.08Zm1.86-.12c-1.56-.12-2.67-.5-3-1a.85.85,0,0,1,0-.81c.06-.16.14-.19.21-.2C180,399.82,181.3,401,182.22,402Z" style="fill:#ccfbf1"></path><path d="M182.67,402.4a.24.24,0,0,0,.12,0,.22.22,0,0,0,.16-.16c0-.1.62-2.62-.11-3.72a1.15,1.15,0,0,0-.79-.5h0a.72.72,0,0,0-.82.34c-.5.9.62,3.26,1.35,4A.2.2,0,0,0,182.67,402.4Zm-.61-3.95a.7.7,0,0,1,.41.31c.48.7.28,2.22.15,3-.67-.91-1.31-2.64-1-3.17,0-.05.09-.16.37-.12h0Z" style="fill:#ccfbf1"></path><path d="M251.33,123.68a.71.71,0,0,0-.82.76c.35,5.36-8,15-10,43.87-1.19,17.56-2.28,72.31-1.48,100.79a2.46,2.46,0,0,0,3.13,2.29c14.76-4.12,21.73,5.87,24.57-5.91-.15-14.11-4.42-64.77-3.32-76.78s5.67-44.64,6.81-53.34C271.23,127.8,255.46,124.43,251.33,123.68Z" style="fill:#ccfbf1"></path><path d="M251.33,123.68a.71.71,0,0,0-.82.76c.35,5.36-8,15-10,43.87-1.19,17.56-2.28,72.31-1.48,100.79a2.46,2.46,0,0,0,3.13,2.29c14.76-4.12,21.73,5.87,24.57-5.91-.15-14.11-4.42-64.77-3.32-76.78s5.67-44.64,6.81-53.34C271.23,127.8,255.46,124.43,251.33,123.68Z" style="fill:#fff;opacity:0.7000000000000001"></path><path d="M261.06,148.15c-.65,4.46-.9,22.48,3.39,31.15.72-6,1.66-13.13,2.57-20Z" style="fill:#ccfbf1;opacity:0.2"></path><path d="M267.19,226.08l-4.26.5-3.77,6.73a3,3,0,0,0-.24,2.42l1.36,4.14a3,3,0,0,0,3.5,2l1.9-.4a3,3,0,0,0,2.4-3.06l-.12-3.68S271.34,226.92,267.19,226.08Z" style="fill:#ffb573"></path><path d="M269.53,132c1.36,4,2.62,7.95,3.87,11.95s2.5,8,3.68,12,2.32,8.09,3.37,12.26c.52,2.09,1,4.2,1.46,6.41.21,1.11.42,2.24.59,3.44.08.62.17,1.19.22,1.88l.09,1,.05,1.13a10.86,10.86,0,0,1,0,1.14c0,.4,0,.78-.05,1.09l-.09,1-.11.9c-.14,1.21-.32,2.31-.5,3.41-.36,2.18-.78,4.28-1.21,6.36-.86,4.16-1.82,8.23-2.79,12.28s-2,8.09-3,12.12l-3,12.09-14.48-3.93c2.24-7.81,4.28-15.76,6.17-23.66.92-4,1.78-7.92,2.55-11.83.38-2,.74-3.9,1-5.78.15-.94.27-1.87.35-2.71a13.07,13.07,0,0,0,.08-2l0-.42-.07-.54c0-.34-.12-.79-.18-1.18-.14-.84-.32-1.73-.52-2.64-.41-1.82-.9-3.7-1.43-5.59-1-3.79-2.27-7.63-3.56-11.45-2.55-7.64-5.42-15.33-8.38-22.81Z" style="fill:#ccfbf1"></path><path d="M269.53,132c1.36,4,2.62,7.95,3.87,11.95s2.5,8,3.68,12,2.32,8.09,3.37,12.26c.52,2.09,1,4.2,1.46,6.41.21,1.11.42,2.24.59,3.44.08.62.17,1.19.22,1.88l.09,1,.05,1.13a10.86,10.86,0,0,1,0,1.14c0,.4,0,.78-.05,1.09l-.09,1-.11.9c-.14,1.21-.32,2.31-.5,3.41-.36,2.18-.78,4.28-1.21,6.36-.86,4.16-1.82,8.23-2.79,12.28s-2,8.09-3,12.12l-3,12.09-14.48-3.93c2.24-7.81,4.28-15.76,6.17-23.66.92-4,1.78-7.92,2.55-11.83.38-2,.74-3.9,1-5.78.15-.94.27-1.87.35-2.71a13.07,13.07,0,0,0,.08-2l0-.42-.07-.54c0-.34-.12-.79-.18-1.18-.14-.84-.32-1.73-.52-2.64-.41-1.82-.9-3.7-1.43-5.59-1-3.79-2.27-7.63-3.56-11.45-2.55-7.64-5.42-15.33-8.38-22.81Z" style="fill:#fff;opacity:0.7000000000000001"></path><path d="M231.88,122.93a1.16,1.16,0,0,1,.91,1.89c-2.38,2.76-3.88,6.55-6.7,18.71-3.4,14.67-10.64,88.48-12,124.65a2.08,2.08,0,0,1-2.45,2c-7.06-1.3-11.9,2.12-12.67-2.41-.85-5,2.32-52.76,8.25-75.22-.93-19.92,2.43-59.88,9.14-65.19C220,124.41,227.74,123,231.88,122.93Z" style="fill:#ccfbf1"></path><path d="M231.88,122.93a1.16,1.16,0,0,1,.91,1.89c-2.38,2.76-3.88,6.55-6.7,18.71-3.4,14.67-10.64,88.48-12,124.65a2.08,2.08,0,0,1-2.45,2c-7.06-1.3-11.9,2.12-12.67-2.41-.85-5,2.32-52.76,8.25-75.22-.93-19.92,2.43-59.88,9.14-65.19C220,124.41,227.74,123,231.88,122.93Z" style="fill:#fff;opacity:0.7000000000000001"></path><path d="M235.77,132.84s-8.64,24.27-11.68,44.61c-.24,5.53,2.39,16.24,4.52,20.91,4.45-9.69,7.23-15.4,7.67-20.91.71-8.29,1.88-44.45,1.88-44.45Z" style="fill:#263238"></path><path d="M253.85,161.71a.4.4,0,0,1-.18-.75l1.64-.86a8.47,8.47,0,0,0,4.54-8.5l-1.78-16.12a5.38,5.38,0,0,0-10.38-1.32l-5.76,15.15a8.48,8.48,0,0,0,2.25,9.37l1.38,1.25a.4.4,0,0,1,0,.56.4.4,0,0,1-.56,0l-1.38-1.24A9.28,9.28,0,0,1,241.19,149L247,133.88a6.18,6.18,0,0,1,11.91,1.52l1.78,16.11a9.28,9.28,0,0,1-5,9.3l-1.64.85A.32.32,0,0,1,253.85,161.71Z" style="fill:#263238"></path><path d="M258.81,139a.39.39,0,0,1-.39-.34,5.92,5.92,0,0,0-5.41-4.86c-2.22-.28-5.24.42-6.45,3.34a.4.4,0,1,1-.74-.3,7.18,7.18,0,0,1,13.38,1.71.39.39,0,0,1-.33.44Z" style="fill:#263238"></path><path d="M253.43,130.73h0a.39.39,0,0,1-.37-.42c.12-1.95-.16-5.5-2-6.42a.4.4,0,0,1,.37-.71c2.66,1.37,2.42,6.59,2.38,7.18A.39.39,0,0,1,253.43,130.73Z" style="fill:#263238"></path><path d="M246.18,160.33c-.1.75-.57,1.3-1.06,1.23s-.81-.71-.71-1.45.56-1.3,1.05-1.23S246.27,159.59,246.18,160.33Z" style="fill:#263238"></path><path d="M222.93,144.12c-.63,1.59-2,2.55-3,2.14s-1.39-2-.76-3.63,2-2.55,3-2.14S223.55,142.53,222.93,144.12Z" style="fill:#263238"></path><path d="M219.64,143.09h-.08a.4.4,0,0,1-.31-.47c1.32-6.57,6.78-17,11.59-20a.4.4,0,1,1,.42.67c-4.65,2.93-9.94,13-11.23,19.47A.4.4,0,0,1,219.64,143.09Z" style="fill:#263238"></path><path d="M224.07,144.45c-.46,1.37-1.64,2.22-2.64,1.89s-1.45-1.72-1-3.1,1.64-2.22,2.64-1.89S224.53,143.07,224.07,144.45Z" style="fill:#fff"></path><path d="M224.14,144.59c-.61,1.69-1.74,2.84-2.51,2.56s-.9-1.88-.28-3.58,1.74-2.84,2.51-2.56S224.76,142.89,224.14,144.59Z" style="fill:#263238"></path><path d="M254.74,161.43c-.09.74-.57,1.29-1.06,1.23s-.81-.72-.71-1.46.57-1.29,1.06-1.23S254.84,160.68,254.74,161.43Z" style="fill:#263238"></path></g></svg>